#!OML:ASF F:\VICON\USERDATA\INSTALL\rory3\rory3.ASF
:FULLY-SPECIFIED
:DEGREES
223
root -8.1532 17.6418 4.85313 -15.3911 -62.9465 14.1056
lowerback 11.2815 0.992027 1.00088
upperback 0.25258 1.45954 0.452677
thorax -6.05457 0.686205 -0.326327
lowerneck -16.8991 3.40736 -8.50935
upperneck 41.3898 6.13635 3.11953
head 17.8284 1.20488 4.03992
rclavicle 1.65985e-014 -4.77083e-015
rhumerus -32.6571 -15.5028 -69.7938
rradius 32.6235
rwrist 3.81833
rhand -16.885 8.09052
rfingers 7.12502
rthumb 9.34633 -21.6823
lclavicle 1.65985e-014 -4.77083e-015
lhumerus -34.8518 12.9649 82.7318
lradius 30.0111
lwrist -7.10746
lhand -19.7375 27.2105
lfingers 7.12502
lthumb 6.59325 57.0879
rfemur -1.42039 1.96173 2.20536
rtibia 36.1935
rfoot -10.5269 -20.3715
rtoes 1.03184
lfemur -1.74162 -0.813062 -15.357
ltibia 14.4429
lfoot -0.523382 7.68138
ltoes -23.9387
224
root -8.11546 17.6486 4.9817 -15.3874 -62.5109 14.0147
lowerback 11.3543 0.973266 1.0927
upperback 0.337264 1.44445 0.438435
thorax -6.00353 0.676023 -0.390962
lowerneck -16.9247 3.36692 -8.50779
upperneck 41.3344 6.07897 3.13438
head 17.8075 1.19175 4.03586
rclavicle 1.83379e-014 7.95139e-015
rhumerus -32.8753 -16.0757 -69.5553
rradius 32.9433
rwrist 3.67448
rhand -17.1424 8.19429
rfingers 7.12502
rthumb 9.09796 -21.5895
lclavicle 1.83379e-014 7.95139e-015
lhumerus -34.557 12.2693 83.2278
lradius 30.0829
lwrist -7.39986
lhand -19.6843 26.6734
lfingers 7.12502
lthumb 6.64457 56.5491
rfemur -1.44353 2.13544 1.87654
rtibia 36.6279
rfoot -9.53292 -21.0238
rtoes 2.63566
lfemur -1.69507 -0.831048 -15.9384
ltibia 14.5271
lfoot -0.827131 7.44018
ltoes -23.6205
225
root -8.0764 17.6552 5.10594 -15.3896 -62.0097 13.9653
lowerback 11.4402 0.951013 1.08431
upperback 0.40524 1.4133 0.439865
thorax -5.98063 0.660893 -0.380549
lowerneck -17.0335 3.30578 -8.44362
upperneck 41.3069 6.01938 3.05365
head 17.835 1.17006 3.9816
rclavicle 2.78299e-014 -1.59028e-015
rhumerus -33.0791 -16.5638 -69.3541
rradius 33.2583
rwrist 3.24994
rhand -17.5689 7.86022
rfingers 7.12502
rthumb 8.68637 -21.9411
lclavicle 2.78299e-014 -1.59028e-015
lhumerus -34.2245 11.2948 83.791
lradius 30.1499
lwrist -7.31733
lhand -19.8012 25.8317
lfingers 7.12502
lthumb 6.53173 55.7109
rfemur -1.49632 2.44465 1.56693
rtibia 37.0971
rfoot -8.71187 -21.7534
rtoes 4.9653
lfemur -1.72361 -0.878713 -16.5293
ltibia 14.631
lfoot -1.07362 7.11594
ltoes -23.9322
226
root -8.03646 17.6618 5.22409 -15.7682 -61.4317 14.3294
lowerback 11.5458 0.925636 0.728513
upperback 0.515769 1.33461 0.489908
thorax -5.93351 0.632636 -0.11549
lowerneck -17.2476 3.26808 -8.539
upperneck 41.3396 6.10854 2.88936
head 17.9137 1.16475 3.95019
rclavicle -5.08392e-014 -1.27222e-014
rhumerus -33.1868 -16.695 -69.1229
rradius 33.5775
rwrist 2.73929
rhand -18.2034 7.57732
rfingers 7.12502
rthumb 8.07403 -22.2484
lclavicle -5.08392e-014 -1.27222e-014
lhumerus -33.8884 10.6222 84.3844
lradius 30.2445
lwrist -7.46565
lhand -19.9706 24.9377
lfingers 7.12502
lthumb 6.36822 54.822
rfemur -1.55988 2.79518 1.05109
rtibia 37.626
rfoot -7.87824 -22.4417
rtoes 7.08873
lfemur -1.71719 -0.670036 -17.2728
ltibia 14.6744
lfoot -1.34422 6.49249
ltoes -23.8252
227
root -8 17.6701 5.34335 -16.0379 -60.8985 14.614
lowerback 11.5517 0.915253 0.488929
upperback 0.613259 1.28664 0.47566
thorax -5.83915 0.615454 0.0133226
lowerneck -17.3022 3.2926 -8.5314
upperneck 41.2959 6.20346 2.79354
head 17.902 1.19672 3.9229
rclavicle 5.0541e-014 1.90833e-014
rhumerus -33.3767 -17.1444 -68.8828
rradius 33.8081
rwrist 2.62668
rhand -18.7009 7.61381
rfingers 7.12502
rthumb 7.59389 -22.2299
lclavicle 5.0541e-014 1.90833e-014
lhumerus -33.6042 9.86359 84.909
lradius 30.4143
lwrist -7.42761
lhand -20.3593 24.7157
lfingers 7.12502
lthumb 5.99294 54.611
rfemur -1.72309 3.13676 0.601972
rtibia 38.2244
rfoot -6.69822 -23.1541
rtoes 8.57051
lfemur -1.66543 -0.444201 -17.9565
ltibia 14.5869
lfoot -1.63169 5.79266
ltoes -23.0358
228
root -7.96654 17.6792 5.46279 -16.2102 -60.4335 14.7633
lowerback 11.568 0.910578 0.328736
upperback 0.675532 1.25862 0.479202
thorax -5.7862 0.60586 0.112233
lowerneck -17.2413 3.32359 -8.54014
upperneck 41.2339 6.26065 2.77887
head 17.8451 1.22553 3.92312
rclavicle 4.88513e-014 1.59028e-014
rhumerus -33.65 -17.613 -68.6014
rradius 33.972
rwrist 2.707
rhand -18.6646 7.8731
rfingers 7.12502
rthumb 7.62888 -21.9693
lclavicle 4.88513e-014 1.59028e-014
lhumerus -33.3442 8.95413 85.4397
lradius 30.5555
lwrist -7.06498
lhand -20.5521 24.8117
lfingers 7.12502
lthumb 5.80679 54.7121
rfemur -1.90465 3.73201 0.317071
rtibia 38.8687
rfoot -5.5912 -24.1538
rtoes 11.1766
lfemur -1.56118 -0.361072 -18.5746
ltibia 14.4959
lfoot -1.78581 5.2178
ltoes -23.1569
229
root -7.93122 17.6941 5.57123 -16.2672 -60.0326 14.8114
lowerback 11.622 0.942993 0.106117
upperback 0.719973 1.27691 0.563535
thorax -5.77649 0.62136 0.322661
lowerneck -17.1833 3.32441 -8.62459
upperneck 41.1664 6.31318 2.73295
head 17.7868 1.23623 3.92101
rclavicle 3.22528e-014 0
rhumerus -33.8941 -17.85 -68.3415
rradius 34.1651
rwrist 2.59112
rhand -18.3359 8.12963
rfingers 7.12502
rthumb 7.9461 -21.701
lclavicle 3.22528e-014 0
lhumerus -33.1012 8.02327 86.0324
lradius 30.7572
lwrist -6.63956
lhand -20.4688 25.0466
lfingers 7.12502
lthumb 5.88726 54.9448
rfemur -2.18645 4.6649 0.238838
rtibia 39.5475
rfoot -4.63804 -25.4664
rtoes 15.1331
lfemur -1.51223 0.073988 -19.0576
ltibia 14.4285
lfoot -1.99332 4.33886
ltoes -24.008
